<?xml version="1.0" encoding="iso-8859-1"?>
<!-- Generator: Adobe Illustrator 19.0.0, SVG Export Plug-In . SVG Version: 6.00 Build 0)  -->
<svg version="1.1" id="Layer_1" xmlns="http://www.w3.org/2000/svg" xmlns:xlink="http://www.w3.org/1999/xlink" x="0px" y="0px"
	 viewBox="0 0 512 512" style="enable-background:new 0 0 512 512;" xml:space="preserve">
<g>
	<g>
		<path d="M456.982,329.814c-6.25,0-11.335,5.085-11.335,11.335c0,6.251,5.085,11.335,11.335,11.335s11.335-5.085,11.335-11.335
			S463.232,329.814,456.982,329.814z"/>
	</g>
</g>
<g>
	<g>
		<path d="M392.885,219.305c2.294-11.936,11.799-62.235,15.013-92.169c2.447,0.012,4.89,0.036,7.34,0.036
			c1.055,0,2.1-0.201,3.08-0.593l88.466-35.386c4.253-1.702,6.322-6.528,4.621-10.781c-1.702-4.254-6.531-6.321-10.781-4.621
			l-57.706,23.083l22.574-27.052l42.475-25.449c3.93-2.354,5.206-7.448,2.852-11.377c-2.354-3.931-7.45-5.205-11.377-2.852
			l-43.68,26.171c-0.798,0.479-1.509,1.086-2.105,1.8l-42.106,50.455c-0.867-0.002-1.731-0.012-2.596-0.015
			c-0.011-0.589-0.032-1.148-0.065-1.66c-0.126-1.944-0.422-6.498-4.076-9.308c-6.429-4.947-21.266-7.904-33.107-4.42
			c-7.67,2.256-10.667,6.609-11.829,9.863c-0.258,0.721-0.844,2.251-1.699,4.434c-17.367-0.679-34.534-1.674-51.421-2.971
			c0.333-0.612,0.54-0.964,0.556-0.992c1.786-2.928,1.585-6.656-0.508-9.375c-1.023-1.328-10.636-12.98-33.431-12.077
			c-8.391,0.323-15.834,6.012-22.255,16.95c-8.549-1.037-17.042-2.152-25.459-3.358c-0.209-5.54-2.233-10.285-7.286-13.443
			c-8.256-5.16-18.301-6.8-26.868-4.392c-4.301,1.21-9.827,3.891-14.889,9.701c-6.328-1.196-12.6-2.437-18.805-3.73
			c0.506-1.766,0.428-3.699-0.323-5.492c-0.389-0.931-9.827-22.782-34.189-22.782c-10.353,0-19.393,4.526-27.782,13.09
			C40.903,55.154,12.395,40.886,12.047,40.711c-4.079-2.07-9.072-0.442-11.146,3.64c-2.075,4.084-0.446,9.077,3.638,11.15
			c1.18,0.599,27.835,14,79.917,29.18c-10.398,15.926-20.185,38.468-30.839,66.651c-8.029,21.241-16.824,37.602-25.329,53.426
			c-15.179,28.238-28.286,52.626-28.286,91.053c0,30.768,14.089,77.46,53.631,116.227c21.395,20.976,47.964,37.469,78.971,49.02
			c35.582,13.255,77.098,19.977,123.395,19.977c66.897,0,124.177-12.635,170.248-37.555c43.497-23.527,65.504-52.065,74.754-66.983
			c8.666-13.98,8.188-31.963-1.218-45.813c-6.527-9.613-6.264-13.391-6.217-13.761c4.4-9.551,1.603-23.617-6.389-32.073
			c-7.172-7.587-17.231-9.923-27.944-6.597c-19.078-4.339-46.133,12.865-68.101,26.839l-2.893,1.838
			c-4.658,2.954-10.432,3.522-15.615,1.669c1.653-4.954,3.843-12.86,6.91-25.85C383.551,265.733,388.293,243.201,392.885,219.305z
			 M300.196,122.62c16.899,1.367,34.089,2.427,51.483,3.179c-9.479,23.599-25.002,61.592-35.613,86.052
			c-3.486-13.442-7.763-25.374-11.326-35.313c-2.163-6.034-4.032-11.246-5.416-15.825
			C295.116,146.797,297.137,132.962,300.196,122.62z M214.491,134.677c0.717-1.793,1.519-3.709,2.352-5.696
			c2.007-4.79,4.155-9.928,5.833-15.009c7.009,1.008,14.069,1.953,21.17,2.846c-0.854,2.322-1.684,4.762-2.489,7.328
			c-6.577,20.987-10.711,48.015-11.342,74.154c-0.483,20.072-4.042,37.609-9.099,52.644c-2.71-1.516-5.522-2.895-8.414-4.134
			c0.081-5.166-0.016-13.54-0.174-25.901C212.004,195.485,211.33,142.579,214.491,134.677z M184.534,107.84
			c7.081,1.264,14.239,2.455,21.443,3.598c-1.548,4.246-3.309,8.452-4.432,11.133c-0.869,2.075-1.706,4.074-2.455,5.945
			c-3.71,9.273-4.037,38.462-3.347,92.605c0.092,7.196,0.186,14.524,0.199,20.073c-18.343-4.846-37.119-5.942-49.074-6.495
			c0.063-1.985,0.1-3.671,0.119-4.929c0.232-15.187-0.56-30.2-2.229-43.708c3.814-8.739,15.988-32.195,25.867-51.228
			C175.972,124.534,181.041,114.766,184.534,107.84z M145.989,100.22c7.1,1.543,14.287,3.023,21.554,4.441
			c-3.239,6.343-7.352,14.265-11.642,22.532c-5.685,10.952-11.462,22.083-16.279,31.569c-4.856-20.182-3.902-37.752,2.878-52.238
			C143.614,104.147,144.805,102.059,145.989,100.22z M397.121,320.939l2.914-1.851c15.765-10.025,45.111-28.688,56.495-24.369
			c1.944,0.738,4.092,0.718,6.021-0.054c5.409-2.165,9.521-1.649,12.572,1.581c3.941,4.167,4.639,11.036,3.372,13.752
			c-3.51,7.523-1.034,17.337,7.567,30.006c5.732,8.44,6.06,19.333,0.84,27.756c-8.379,13.516-28.425,39.431-68.544,61.131
			c-43.62,23.595-98.246,35.558-162.357,35.558c-44.314,0-83.882-6.371-117.605-18.934c-28.814-10.734-53.426-25.982-73.148-45.32
			c-35.875-35.173-48.657-76.983-48.657-104.384c0-34.253,11.61-55.853,26.31-83.2c8.351-15.538,17.817-33.149,26.235-55.412
			c22.315-59.028,38.009-83.105,54.168-83.105c7.872,0,13.003,4.322,15.904,7.907c-9.804,10.383-27.211,36.509-15.085,83.196
			c9.946,38.292,6.469,97.493,0.609,109.211c-2.049,4.097-0.389,9.079,3.709,11.127c4.098,2.051,9.08,0.388,11.128-3.708
			c3.495-6.991,5.349-19.363,6.332-30.567c15.805,0.734,48.184,2.71,68.884,15.309c-8.584,18.999-19.094,32.791-26.857,41.37
			c-3.073,3.397-2.811,8.641,0.585,11.715c3.396,3.072,8.641,2.811,11.715-0.585c16.68-18.436,44.886-58.589,46.375-120.371
			c0.594-24.655,4.453-50.021,10.587-69.593c7.244-23.109,14.602-28.393,16.826-28.479c7.517-0.279,12.564,1.291,15.684,2.874
			c-5.328,11.433-14.097,36.051-6.247,62.012c1.505,4.979,3.532,10.635,5.678,16.62c11.817,32.959,29.671,82.767,3.64,136.607
			c-1.995,4.124-0.268,9.083,3.856,11.077c1.163,0.563,2.393,0.829,3.604,0.829c3.082,0,6.042-1.726,7.473-4.685
			c3.585-7.413,6.419-14.763,8.617-22.015c0.521,0.103,1.058,0.159,1.61,0.159c10.996,0,36.045,13.522,44.276,17.966
			C373.239,328.032,386.622,327.595,397.121,320.939z M357.682,301.007c-17.094-8.573-28.797-12.745-37.421-13.392
			c3.045-16.748,2.969-32.798,1.19-47.702c8.655-16.684,35.474-82.489,47.829-113.453c7.293,0.226,14.62,0.384,21.965,0.501
			c-1.947,17.002-6.32,45.122-13.297,82.101C369.499,253.843,361.801,287.463,357.682,301.007z"/>
	</g>
</g>
<g>
</g>
<g>
</g>
<g>
</g>
<g>
</g>
<g>
</g>
<g>
</g>
<g>
</g>
<g>
</g>
<g>
</g>
<g>
</g>
<g>
</g>
<g>
</g>
<g>
</g>
<g>
</g>
<g>
</g>
</svg>
