<?xml version="1.0"?>
<svg xmlns="http://www.w3.org/2000/svg" xmlns:xlink="http://www.w3.org/1999/xlink" version="1.1" id="Layer_1" x="0px" y="0px" viewBox="0 0 512.001 512.001" style="enable-background:new 0 0 512.001 512.001;" xml:space="preserve" width="512px" height="512px" class=""><g><g>
	<path style="fill:#F83CA7" d="M356.691,302.984c-16.687-8.366-28.314-12.548-36.594-13.164l-2.453-0.182l0.44-2.42   c2.723-14.943,3.117-30.772,1.173-47.046l-0.08-0.677l0.313-0.605c9.052-17.433,37.529-87.659,47.736-113.247l0.574-1.438   l1.547,0.046c6.612,0.2,13.786,0.362,21.931,0.495l2.438,0.04l-0.278,2.423c-2.194,19.164-6.924,48.377-13.316,82.256   c-7.658,40.595-15.638,76.78-20.327,92.183l-0.763,2.509L356.691,302.984z" data-original="#736B54" class="active-path" data-old_color="#E89CA8"/>
	<path style="fill:#F83CA7" d="M391.244,126.961c-1.946,16.997-6.314,45.119-13.292,82.097c-8.45,44.786-16.146,78.403-20.27,91.95   c-17.096-8.57-28.796-12.75-37.421-13.392c3.052-16.752,2.974-32.799,1.194-47.705c8.658-16.676,35.474-82.484,47.827-113.447   C376.581,126.684,383.902,126.839,391.244,126.961z" data-original="#736B54" class="active-path" data-old_color="#E89CA8"/>
	<path style="fill:#F83CA7" d="M195.379,243.332c-16.884-4.456-34.05-5.746-48.616-6.42l-2.182-0.102l0.073-2.183   c0.067-1.975,0.1-3.645,0.121-4.896c0.227-14.821-0.54-29.832-2.217-43.405l-0.073-0.6l0.242-0.555   c3.812-8.732,15.936-32.099,25.68-50.876l0.249-0.481c5.578-10.741,10.473-20.182,13.9-26.972l0.741-1.469l1.621,0.289   c6.803,1.211,14.003,2.417,21.4,3.586l2.651,0.419l-0.919,2.522c-1.485,4.076-3.167,8.123-4.282,10.802l-0.177,0.427   c-0.871,2.063-1.705,4.05-2.441,5.905c-3.565,8.9-3.873,39.118-3.196,91.769l0.032,2.618c0.076,6.188,0.157,12.587,0.167,17.478   l0.007,2.877L195.379,243.332z" data-original="#736B54" class="active-path" data-old_color="#E89CA8"/>
	<path style="fill:#F83CA7" d="M205.973,111.435c-1.547,4.247-3.306,8.45-4.423,11.136c-0.874,2.068-1.714,4.069-2.455,5.938   c-3.716,9.278-4.047,38.472-3.351,92.613c0.088,7.188,0.188,14.52,0.2,20.071c-18.347-4.844-37.123-5.938-49.078-6.491   c0.067-1.99,0.101-3.671,0.122-4.932c0.232-15.183-0.564-30.201-2.234-43.713c3.814-8.736,15.99-32.191,25.865-51.222   c5.352-10.305,10.417-20.07,13.911-26.993C191.62,109.102,198.775,110.296,205.973,111.435z" data-original="#736B54" class="active-path" data-old_color="#E89CA8"/>
</g><g>
	<path style="fill:#E89CA8" d="M256.002,466.66c-44.575,0-84.401-6.417-118.377-19.071c-29.101-10.844-53.973-26.259-73.927-45.821   c-36.363-35.644-49.32-78.106-49.32-105.957c0-34.806,11.726-56.625,26.571-84.249c8.35-15.539,17.762-33.054,26.12-55.149   c22.998-60.833,38.765-84.534,56.234-84.534c8.732,0,14.401,4.746,17.622,8.728l1.215,1.503l-1.326,1.406   c-10.436,11.057-26.199,36.3-14.552,81.127c10.062,38.701,6.428,98.791,0.446,110.758c-0.725,1.452-0.843,3.101-0.327,4.642   c0.515,1.54,1.598,2.788,3.052,3.513c0.854,0.428,1.766,0.644,2.71,0.644c2.326,0,4.411-1.291,5.447-3.367   c2.768-5.534,4.877-15.828,6.102-29.771l0.186-2.115l2.121,0.1c13.114,0.615,47.952,2.246,69.94,15.636l1.672,1.017l-0.807,1.783   c-8.847,19.56-19.694,33.605-27.235,41.942c-1.09,1.204-1.645,2.76-1.565,4.381c0.082,1.622,0.79,3.115,1.995,4.207   c1.119,1.013,2.564,1.571,4.074,1.571c1.716,0,3.361-0.73,4.513-2.003c16.475-18.198,44.332-57.848,45.808-118.939   c0.602-24.841,4.494-50.426,10.683-70.197c6.858-21.888,14.443-29.86,18.852-30.034c0.62-0.023,1.219-0.034,1.8-0.034   c5.817,0,10.853,1.059,14.969,3.146l1.909,0.968l-0.903,1.94c-5.529,11.864-13.679,35.493-6.135,60.44   c1.467,4.858,3.458,10.406,5.565,16.28l0.084,0.236c11.943,33.336,29.972,83.663,3.547,138.323   c-0.71,1.457-0.806,3.101-0.273,4.631c0.533,1.539,1.636,2.776,3.103,3.482c0.835,0.406,1.72,0.61,2.633,0.61   c2.327,0,4.478-1.349,5.483-3.436c3.424-7.078,6.279-14.374,8.491-21.686l0.573-1.9l1.951,0.366   c0.419,0.079,0.813,0.116,1.208,0.116c11.574,0,36.979,13.726,45.328,18.235c4.742,2.561,10.093,3.915,15.474,3.915   c6.124,0,12.077-1.721,17.213-4.976l2.906-1.846c14.91-9.481,39.864-25.353,53.72-25.353c1.783,0,3.379,0.262,4.745,0.78   c0.694,0.263,1.419,0.397,2.156,0.397c0.777,0,1.54-0.147,2.266-0.438c2.469-0.986,4.675-1.464,6.742-1.464   c3.238,0,6.013,1.205,8.253,3.582c4.703,4.967,5.364,12.79,3.765,16.209c-3.149,6.755-0.729,15.858,7.4,27.822   c6.219,9.172,6.569,21.012,0.89,30.165c-8.489,13.7-28.792,39.961-69.376,61.909C375.46,454.606,320.48,466.66,256.002,466.66z    M456.986,332.026c-5.03,0-9.123,4.093-9.123,9.123s4.093,9.123,9.123,9.123s9.123-4.093,9.123-9.123   S462.016,332.026,456.986,332.026z" data-original="#8C836B" class="" data-old_color="##8C836"/>
	<path style="fill:#E89CA8" d="M486.068,339.999c5.729,8.449,6.06,19.341,0.84,27.756c-8.381,13.524-28.431,39.434-68.549,61.13   c-43.625,23.598-98.242,35.563-162.358,35.563c-44.311,0-83.877-6.37-117.605-18.932c-28.819-10.738-53.424-25.987-73.151-45.328   C29.373,365.024,16.59,323.213,16.59,295.81c0-34.248,11.611-55.855,26.308-83.203c8.349-15.537,17.815-33.142,26.24-55.412   c22.317-59.03,38.007-83.104,54.165-83.104c7.874,0,13.005,4.324,15.902,7.907c-9.798,10.384-27.214,36.514-15.084,83.201   c9.952,38.284,6.469,97.49,0.608,109.213c-2.046,4.09-0.387,9.079,3.716,11.125c4.09,2.046,9.079,0.387,11.125-3.716   c3.494-6.988,5.341-19.363,6.325-30.565c15.814,0.741,48.192,2.709,68.894,15.316c-8.592,18.999-19.098,32.788-26.861,41.369   c-3.074,3.395-2.809,8.638,0.585,11.711c3.395,3.074,8.638,2.809,11.711-0.585c16.688-18.434,44.887-58.587,46.378-120.371   c0.597-24.66,4.456-50.016,10.583-69.59c7.243-23.112,14.608-28.398,16.831-28.486c7.52-0.276,12.562,1.294,15.681,2.875   c-5.329,11.434-14.099,36.051-6.247,62.015c1.503,4.976,3.538,10.638,5.684,16.621c11.81,32.965,29.669,82.771,3.638,136.614   c-2.002,4.114-0.265,9.079,3.859,11.069c1.161,0.564,2.389,0.829,3.594,0.829c3.085,0,6.049-1.725,7.475-4.689   c3.583-7.409,6.425-14.763,8.614-22.005c0.53,0.1,1.062,0.155,1.615,0.155c10.992,0,36.05,13.524,44.277,17.97   c11.035,5.96,24.417,5.518,34.922-1.139l2.908-1.847c15.769-10.029,45.107-28.684,56.497-24.372   c1.946,0.741,4.092,0.719,6.027-0.055c5.408-2.156,9.521-1.648,12.562,1.581c3.947,4.17,4.643,11.036,3.373,13.757   C474.989,317.517,477.465,327.337,486.068,339.999z M468.321,341.149c0-6.248-5.087-11.335-11.335-11.335   s-11.335,5.087-11.335,11.335s5.087,11.335,11.335,11.335S468.321,347.398,468.321,341.149z" data-original="#8C836B" class="" data-old_color="##8C836"/>
</g><g>
	<path style="fill:#5634AA" d="M511.404,80.405c1.703,4.257-0.365,9.079-4.611,10.782l-88.466,35.387   c-0.984,0.398-2.035,0.597-3.085,0.597c-2.455,0-4.888-0.022-7.343-0.033c-3.207,29.935-12.717,80.228-15.006,92.172   c-4.6,23.886-9.333,46.422-13.358,63.441c-3.063,12.993-5.253,20.889-6.911,25.842c5.186,1.859,10.959,1.295,15.614-1.659   l2.897-1.847c21.973-13.967,49.021-31.172,68.108-26.838c10.704-3.317,20.767-0.984,27.933,6.602   c7.995,8.46,10.793,22.526,6.392,32.069c-0.044,0.376-0.31,4.147,6.226,13.768c9.4,13.845,9.875,31.826,1.216,45.814   c-9.255,14.918-31.262,43.448-74.754,66.98c-46.08,24.914-103.351,37.554-170.253,37.554c-46.301,0-87.814-6.723-123.399-19.982   c-31.007-11.545-57.571-28.043-78.967-49.009c-39.544-38.771-53.633-85.47-53.633-116.234c0-38.428,13.104-62.811,28.287-91.054   c8.503-15.826,17.295-32.181,25.323-53.424c10.66-28.186,20.446-50.723,30.842-66.658C32.369,69.502,5.719,56.1,4.535,55.503   c-4.079-2.08-5.705-7.067-3.638-11.159c2.08-4.079,7.067-5.705,11.147-3.638c0.354,0.177,28.863,14.443,83.479,29.891   c8.382-8.57,17.428-13.093,27.778-13.093c24.361,0,33.794,21.851,34.192,22.78c0.752,1.791,0.829,3.727,0.321,5.497   c6.204,1.294,12.474,2.532,18.799,3.727c5.065-5.806,10.594-8.494,14.896-9.699c8.559-2.411,18.611-0.774,26.861,4.39   c5.054,3.163,7.088,7.907,7.287,13.447c8.415,1.205,16.92,2.323,25.467,3.351c6.414-10.937,13.856-16.621,22.249-16.941   c22.802-0.906,32.411,10.75,33.429,12.076c2.1,2.72,2.299,6.447,0.509,9.367c-0.012,0.032-0.221,0.387-0.553,0.994   c16.886,1.294,34.06,2.289,51.421,2.975c0.851-2.19,1.438-3.716,1.703-4.434c1.161-3.251,4.158-7.609,11.821-9.865   c11.843-3.482,26.684-0.53,33.109,4.423c3.66,2.809,3.947,7.354,4.079,9.3c0.033,0.521,0.055,1.074,0.067,1.659   c0.861,0.012,1.725,0.023,2.599,0.023l42.099-50.459c0.597-0.709,1.305-1.316,2.112-1.803l43.68-26.164   c3.926-2.355,9.011-1.084,11.367,2.853c2.355,3.926,1.084,9.011-2.853,11.367L465.49,71.824l-22.57,27.049l57.702-23.079   C504.879,74.091,509.701,76.159,511.404,80.405z M486.909,367.755c5.221-8.414,4.889-19.308-0.84-27.756   c-8.603-12.662-11.08-22.481-7.575-30.001c1.271-2.72,0.575-9.588-3.373-13.757c-3.041-3.229-7.156-3.738-12.562-1.581   c-1.935,0.774-4.081,0.796-6.027,0.055c-11.39-4.312-40.728,14.344-56.497,24.372l-2.908,1.847   c-10.505,6.658-23.887,7.099-34.922,1.139c-8.227-4.445-33.285-17.97-44.277-17.97c-0.553,0-1.084-0.055-1.615-0.155   c-2.19,7.243-5.032,14.596-8.614,22.005c-1.427,2.965-4.39,4.689-7.475,4.689c-1.205,0-2.433-0.265-3.594-0.829   c-4.125-1.99-5.861-6.956-3.859-11.069c26.031-53.843,8.172-103.649-3.638-136.614c-2.145-5.983-4.18-11.644-5.684-16.621   c-7.852-25.964,0.918-50.581,6.247-62.015c-3.117-1.581-8.161-3.152-15.681-2.875c-2.223,0.088-9.588,5.373-16.831,28.486   c-6.126,19.573-9.986,44.93-10.583,69.59c-1.493,61.783-29.692,101.936-46.378,120.371c-3.073,3.394-8.316,3.66-11.711,0.585   c-3.394-3.073-3.66-8.316-0.585-11.711c7.763-8.581,18.268-22.37,26.861-41.369c-20.702-12.605-53.08-14.575-68.894-15.316   c-0.984,11.202-2.831,23.576-6.325,30.565c-2.046,4.103-7.033,5.761-11.125,3.716c-4.103-2.046-5.761-7.033-3.716-11.125   c5.861-11.723,9.344-70.929-0.608-109.213c-12.132-46.688,5.285-72.819,15.084-83.201c-2.897-3.583-8.028-7.907-15.902-7.907   c-16.156,0-31.848,24.074-54.165,83.103c-8.425,22.271-17.892,39.876-26.24,55.412c-14.696,27.347-26.308,48.955-26.308,83.203   c0,27.402,12.783,69.214,48.656,104.379c19.728,19.341,44.333,34.59,73.151,45.328c33.728,12.562,73.293,18.932,117.605,18.932   c64.116,0,118.733-11.965,162.358-35.563C458.478,407.189,478.528,381.279,486.909,367.755z M377.953,209.058   c6.978-36.978,11.346-65.1,13.292-82.097c-7.343-0.121-14.663-0.276-21.961-0.497c-12.353,30.963-39.17,96.771-47.827,113.447   c1.779,14.905,1.858,30.952-1.194,47.705c8.625,0.641,20.325,4.821,37.421,13.392C361.806,287.461,369.503,253.844,377.953,209.058   z M316.07,211.844c10.616-24.45,26.131-62.447,35.607-86.046c-17.394-0.752-34.579-1.814-51.476-3.185   c-3.063,10.341-5.087,24.184-0.874,38.096c1.382,4.578,3.251,9.787,5.419,15.823C308.306,186.476,312.587,198.408,316.07,211.844z    M241.359,124.141c0.807-2.564,1.637-5.008,2.488-7.332c-7.099-0.885-14.166-1.836-21.166-2.842   c-1.681,5.088-3.826,10.218-5.839,15.006c-0.829,1.991-1.636,3.904-2.355,5.706c-3.152,7.896-2.488,60.798-2.156,86.233   c0.156,12.353,0.254,20.734,0.166,25.9c2.897,1.237,5.706,2.62,8.414,4.135c5.065-15.039,8.614-32.578,9.101-52.647   C230.645,172.156,234.78,145.13,241.359,124.141z M201.55,122.571c1.117-2.687,2.876-6.888,4.423-11.136   c-7.199-1.138-14.354-2.332-21.442-3.594c-3.494,6.924-8.559,16.688-13.911,26.993c-9.875,19.031-22.05,42.486-25.865,51.222   c1.67,13.513,2.465,28.53,2.234,43.713c-0.022,1.261-0.055,2.942-0.122,4.932c11.955,0.553,30.731,1.648,49.078,6.491   c-0.012-5.552-0.112-12.883-0.2-20.071c-0.697-54.141-0.365-83.335,3.351-92.613C199.837,126.64,200.676,124.639,201.55,122.571z    M155.902,127.193c4.291-8.27,8.404-16.189,11.643-22.537c-7.264-1.414-14.452-2.897-21.553-4.434   c-1.182,1.836-2.376,3.926-3.493,6.303c-6.779,14.486-7.73,32.058-2.876,52.239C144.446,149.276,150.217,138.141,155.902,127.193z" data-original="#3D484A" class="" data-old_color="#3D484A"/>
	<path style="fill:#5634AA" d="M456.986,329.814c6.248,0,11.335,5.087,11.335,11.335s-5.087,11.335-11.335,11.335   s-11.335-5.087-11.335-11.335S450.737,329.814,456.986,329.814z" data-original="#3D484A" class="" data-old_color="#3D484A"/>
</g></g> </svg>
